<svg xmlns="http://www.w3.org/2000/svg" version="1.1" xmlns:xlink="http://www.w3.org/1999/xlink" xmlns:svgjs="http://svgjs.com/svgjs" width="1440" height="560" preserveAspectRatio="none" viewBox="0 0 1440 560"><g mask="url(&quot;#SvgjsMask1018&quot;)" fill="none"><rect width="1440" height="560" x="0" y="0" fill="rgba(142, 69, 161, 1)"></rect><path d="M-61.09 371.32L-61.09 371.32" stroke="rgba(178, 160, 183, 1)" stroke-width="1.5"></path><path d="M-61.09 371.32L94.92 351.18" stroke="rgba(178, 160, 183, 1)" stroke-width="1.5"></path><path d="M-61.09 371.32L-40.06 553.82" stroke="rgba(178, 160, 183, 1)" stroke-width="1.5"></path><path d="M-61.09 371.32L106.16 561.77" stroke="rgba(178, 160, 183, 1)" stroke-width="1.5"></path><path d="M-61.09 371.32L203.9 341.76" stroke="rgba(178, 160, 183, 1)" stroke-width="1.5"></path><path d="M-61.09 371.32L-43.43 665.65" stroke="rgba(178, 160, 183, 1)" stroke-width="1.5"></path><path d="M-61.09 371.32L58.62 663.04" stroke="rgba(178, 160, 183, 1)" stroke-width="1.5"></path><path d="M-40.06 553.82L-40.06 553.82" stroke="rgba(178, 160, 183, 1)" stroke-width="1.5"></path><path d="M-40.06 553.82L-43.43 665.65" stroke="rgba(178, 160, 183, 1)" stroke-width="1.5"></path><path d="M-40.06 553.82L106.16 561.77" stroke="rgba(178, 160, 183, 1)" stroke-width="1.5"></path><path d="M-40.06 553.82L58.62 663.04" stroke="rgba(178, 160, 183, 1)" stroke-width="1.5"></path><path d="M-43.43 665.65L-43.43 665.65" stroke="rgba(178, 160, 183, 1)" stroke-width="1.5"></path><path d="M-43.43 665.65L58.62 663.04" stroke="rgba(178, 160, 183, 1)" stroke-width="1.5"></path><path d="M-43.43 665.65L106.16 561.77" stroke="rgba(178, 160, 183, 1)" stroke-width="1.5"></path><path d="M-43.43 665.65L218.78 677.36" stroke="rgba(178, 160, 183, 1)" stroke-width="1.5"></path><path d="M94.92 351.18L94.92 351.18" stroke="rgba(178, 160, 183, 1)" stroke-width="1.5"></path><path d="M94.92 351.18L203.9 341.76" stroke="rgba(178, 160, 183, 1)" stroke-width="1.5"></path><path d="M94.92 351.18L106.16 561.77" stroke="rgba(178, 160, 183, 1)" stroke-width="1.5"></path><path d="M94.92 351.18L-40.06 553.82" stroke="rgba(178, 160, 183, 1)" stroke-width="1.5"></path><path d="M94.92 351.18L346.71 407.7" stroke="rgba(178, 160, 183, 1)" stroke-width="1.5"></path><path d="M106.16 561.77L106.16 561.77" stroke="rgba(178, 160, 183, 1)" stroke-width="1.5"></path><path d="M106.16 561.77L58.62 663.04" stroke="rgba(178, 160, 183, 1)" stroke-width="1.5"></path><path d="M106.16 561.77L218.78 677.36" stroke="rgba(178, 160, 183, 1)" stroke-width="1.5"></path><path d="M106.16 561.77L203.9 341.76" stroke="rgba(178, 160, 183, 1)" stroke-width="1.5"></path><path d="M58.62 663.04L58.62 663.04" stroke="rgba(178, 160, 183, 1)" stroke-width="1.5"></path><path d="M203.9 341.76L203.9 341.76" stroke="rgba(178, 160, 183, 1)" stroke-width="1.5"></path><path d="M203.9 341.76L346.71 407.7" stroke="rgba(178, 160, 183, 1)" stroke-width="1.5"></path><path d="M203.9 341.76L351.61 500.93" stroke="rgba(178, 160, 183, 1)" stroke-width="1.5"></path><path d="M218.78 677.36L218.78 677.36" stroke="rgba(178, 160, 183, 1)" stroke-width="1.5"></path><path d="M218.78 677.36L362.75 640.22" stroke="rgba(178, 160, 183, 1)" stroke-width="1.5"></path><path d="M218.78 677.36L58.62 663.04" stroke="rgba(178, 160, 183, 1)" stroke-width="1.5"></path><path d="M218.78 677.36L351.61 500.93" stroke="rgba(178, 160, 183, 1)" stroke-width="1.5"></path><path d="M346.71 407.7L346.71 407.7" stroke="rgba(178, 160, 183, 1)" stroke-width="1.5"></path><path d="M346.71 407.7L351.61 500.93" stroke="rgba(178, 160, 183, 1)" stroke-width="1.5"></path><path d="M346.71 407.7L556.43 352.87" stroke="rgba(178, 160, 183, 1)" stroke-width="1.5"></path><path d="M346.71 407.7L362.75 640.22" stroke="rgba(178, 160, 183, 1)" stroke-width="1.5"></path><path d="M351.61 500.93L351.61 500.93" stroke="rgba(178, 160, 183, 1)" stroke-width="1.5"></path><path d="M351.61 500.93L362.75 640.22" stroke="rgba(178, 160, 183, 1)" stroke-width="1.5"></path><path d="M351.61 500.93L529.04 555.77" stroke="rgba(178, 160, 183, 1)" stroke-width="1.5"></path><path d="M362.75 640.22L362.75 640.22" stroke="rgba(178, 160, 183, 1)" stroke-width="1.5"></path><path d="M362.75 640.22L500.3 698.08" stroke="rgba(178, 160, 183, 1)" stroke-width="1.5"></path><path d="M556.43 352.87L556.43 352.87" stroke="rgba(178, 160, 183, 1)" stroke-width="1.5"></path><path d="M556.43 352.87L639.4 342.64" stroke="rgba(178, 160, 183, 1)" stroke-width="1.5"></path><path d="M556.43 352.87L529.04 555.77" stroke="rgba(178, 160, 183, 1)" stroke-width="1.5"></path><path d="M529.04 555.77L529.04 555.77" stroke="rgba(178, 160, 183, 1)" stroke-width="1.5"></path><path d="M529.04 555.77L649.94 556.37" stroke="rgba(178, 160, 183, 1)" stroke-width="1.5"></path><path d="M500.3 698.08L500.3 698.08" stroke="rgba(178, 160, 183, 1)" stroke-width="1.5"></path><path d="M500.3 698.08L529.04 555.77" stroke="rgba(178, 160, 183, 1)" stroke-width="1.5"></path><path d="M639.4 342.64L639.4 342.64" stroke="rgba(178, 160, 183, 1)" stroke-width="1.5"></path><path d="M639.4 342.64L791.15 385.09" stroke="rgba(178, 160, 183, 1)" stroke-width="1.5"></path><path d="M639.4 342.64L649.94 556.37" stroke="rgba(178, 160, 183, 1)" stroke-width="1.5"></path><path d="M639.4 342.64L828.14 213.53" stroke="rgba(178, 160, 183, 1)" stroke-width="1.5"></path><path d="M639.4 342.64L529.04 555.77" stroke="rgba(178, 160, 183, 1)" stroke-width="1.5"></path><path d="M649.94 556.37L649.94 556.37" stroke="rgba(178, 160, 183, 1)" stroke-width="1.5"></path><path d="M649.94 556.37L654.9 661.48" stroke="rgba(178, 160, 183, 1)" stroke-width="1.5"></path><path d="M649.94 556.37L791.24 532.42" stroke="rgba(178, 160, 183, 1)" stroke-width="1.5"></path><path d="M649.94 556.37L815.11 648.55" stroke="rgba(178, 160, 183, 1)" stroke-width="1.5"></path><path d="M649.94 556.37L500.3 698.08" stroke="rgba(178, 160, 183, 1)" stroke-width="1.5"></path><path d="M654.9 661.48L654.9 661.48" stroke="rgba(178, 160, 183, 1)" stroke-width="1.5"></path><path d="M654.9 661.48L500.3 698.08" stroke="rgba(178, 160, 183, 1)" stroke-width="1.5"></path><path d="M654.9 661.48L815.11 648.55" stroke="rgba(178, 160, 183, 1)" stroke-width="1.5"></path><path d="M654.9 661.48L529.04 555.77" stroke="rgba(178, 160, 183, 1)" stroke-width="1.5"></path><path d="M654.9 661.48L791.24 532.42" stroke="rgba(178, 160, 183, 1)" stroke-width="1.5"></path><path d="M654.9 661.48L362.75 640.22" stroke="rgba(178, 160, 183, 1)" stroke-width="1.5"></path><path d="M828.14 213.53L828.14 213.53" stroke="rgba(178, 160, 183, 1)" stroke-width="1.5"></path><path d="M828.14 213.53L998.22 220.1" stroke="rgba(178, 160, 183, 1)" stroke-width="1.5"></path><path d="M828.14 213.53L791.15 385.09" stroke="rgba(178, 160, 183, 1)" stroke-width="1.5"></path><path d="M828.14 213.53L977.96 37.87" stroke="rgba(178, 160, 183, 1)" stroke-width="1.5"></path><path d="M828.14 213.53L1006.61 377.44" stroke="rgba(178, 160, 183, 1)" stroke-width="1.5"></path><path d="M791.15 385.09L791.15 385.09" stroke="rgba(178, 160, 183, 1)" stroke-width="1.5"></path><path d="M791.15 385.09L791.24 532.42" stroke="rgba(178, 160, 183, 1)" stroke-width="1.5"></path><path d="M791.24 532.42L791.24 532.42" stroke="rgba(178, 160, 183, 1)" stroke-width="1.5"></path><path d="M791.24 532.42L815.11 648.55" stroke="rgba(178, 160, 183, 1)" stroke-width="1.5"></path><path d="M791.24 532.42L966.58 529.75" stroke="rgba(178, 160, 183, 1)" stroke-width="1.5"></path><path d="M815.11 648.55L815.11 648.55" stroke="rgba(178, 160, 183, 1)" stroke-width="1.5"></path><path d="M982.46 -110.37L982.46 -110.37" stroke="rgba(178, 160, 183, 1)" stroke-width="1.5"></path><path d="M982.46 -110.37L977.96 37.87" stroke="rgba(178, 160, 183, 1)" stroke-width="1.5"></path><path d="M982.46 -110.37L1153.9 -107.84" stroke="rgba(178, 160, 183, 1)" stroke-width="1.5"></path><path d="M982.46 -110.37L1097.37 59.46" stroke="rgba(178, 160, 183, 1)" stroke-width="1.5"></path><path d="M982.46 -110.37L1247.01 -67.42" stroke="rgba(178, 160, 183, 1)" stroke-width="1.5"></path><path d="M977.96 37.87L977.96 37.87" stroke="rgba(178, 160, 183, 1)" stroke-width="1.5"></path><path d="M977.96 37.87L1097.37 59.46" stroke="rgba(178, 160, 183, 1)" stroke-width="1.5"></path><path d="M977.96 37.87L998.22 220.1" stroke="rgba(178, 160, 183, 1)" stroke-width="1.5"></path><path d="M977.96 37.87L1153.9 -107.84" stroke="rgba(178, 160, 183, 1)" stroke-width="1.5"></path><path d="M998.22 220.1L998.22 220.1" stroke="rgba(178, 160, 183, 1)" stroke-width="1.5"></path><path d="M998.22 220.1L1141.48 256.69" stroke="rgba(178, 160, 183, 1)" stroke-width="1.5"></path><path d="M998.22 220.1L1006.61 377.44" stroke="rgba(178, 160, 183, 1)" stroke-width="1.5"></path><path d="M998.22 220.1L1106.78 362.67" stroke="rgba(178, 160, 183, 1)" stroke-width="1.5"></path><path d="M1006.61 377.44L1006.61 377.44" stroke="rgba(178, 160, 183, 1)" stroke-width="1.5"></path><path d="M1006.61 377.44L1106.78 362.67" stroke="rgba(178, 160, 183, 1)" stroke-width="1.5"></path><path d="M1006.61 377.44L966.58 529.75" stroke="rgba(178, 160, 183, 1)" stroke-width="1.5"></path><path d="M966.58 529.75L966.58 529.75" stroke="rgba(178, 160, 183, 1)" stroke-width="1.5"></path><path d="M966.58 529.75L1002.61 704.88" stroke="rgba(178, 160, 183, 1)" stroke-width="1.5"></path><path d="M966.58 529.75L815.11 648.55" stroke="rgba(178, 160, 183, 1)" stroke-width="1.5"></path><path d="M966.58 529.75L1106.78 362.67" stroke="rgba(178, 160, 183, 1)" stroke-width="1.5"></path><path d="M1002.61 704.88L1002.61 704.88" stroke="rgba(178, 160, 183, 1)" stroke-width="1.5"></path><path d="M1002.61 704.88L815.11 648.55" stroke="rgba(178, 160, 183, 1)" stroke-width="1.5"></path><path d="M1153.9 -107.84L1153.9 -107.84" stroke="rgba(178, 160, 183, 1)" stroke-width="1.5"></path><path d="M1153.9 -107.84L1247.01 -67.42" stroke="rgba(178, 160, 183, 1)" stroke-width="1.5"></path><path d="M1153.9 -107.84L1097.37 59.46" stroke="rgba(178, 160, 183, 1)" stroke-width="1.5"></path><path d="M1097.37 59.46L1097.37 59.46" stroke="rgba(178, 160, 183, 1)" stroke-width="1.5"></path><path d="M1097.37 59.46L1258.57 101.17" stroke="rgba(178, 160, 183, 1)" stroke-width="1.5"></path><path d="M1097.37 59.46L998.22 220.1" stroke="rgba(178, 160, 183, 1)" stroke-width="1.5"></path><path d="M1097.37 59.46L1247.01 -67.42" stroke="rgba(178, 160, 183, 1)" stroke-width="1.5"></path><path d="M1141.48 256.69L1141.48 256.69" stroke="rgba(178, 160, 183, 1)" stroke-width="1.5"></path><path d="M1141.48 256.69L1106.78 362.67" stroke="rgba(178, 160, 183, 1)" stroke-width="1.5"></path><path d="M1141.48 256.69L1298.69 221.85" stroke="rgba(178, 160, 183, 1)" stroke-width="1.5"></path><path d="M1141.48 256.69L1259.9 371.6" stroke="rgba(178, 160, 183, 1)" stroke-width="1.5"></path><path d="M1141.48 256.69L1006.61 377.44" stroke="rgba(178, 160, 183, 1)" stroke-width="1.5"></path><path d="M1106.78 362.67L1106.78 362.67" stroke="rgba(178, 160, 183, 1)" stroke-width="1.5"></path><path d="M1106.78 362.67L1259.9 371.6" stroke="rgba(178, 160, 183, 1)" stroke-width="1.5"></path><path d="M1247.01 -67.42L1247.01 -67.42" stroke="rgba(178, 160, 183, 1)" stroke-width="1.5"></path><path d="M1247.01 -67.42L1258.57 101.17" stroke="rgba(178, 160, 183, 1)" stroke-width="1.5"></path><path d="M1247.01 -67.42L1456.16 -75.74" stroke="rgba(178, 160, 183, 1)" stroke-width="1.5"></path><path d="M1247.01 -67.42L1429.39 103.55" stroke="rgba(178, 160, 183, 1)" stroke-width="1.5"></path><path d="M1258.57 101.17L1258.57 101.17" stroke="rgba(178, 160, 183, 1)" stroke-width="1.5"></path><path d="M1258.57 101.17L1298.69 221.85" stroke="rgba(178, 160, 183, 1)" stroke-width="1.5"></path><path d="M1258.57 101.17L1429.39 103.55" stroke="rgba(178, 160, 183, 1)" stroke-width="1.5"></path><path d="M1258.57 101.17L1141.48 256.69" stroke="rgba(178, 160, 183, 1)" stroke-width="1.5"></path><path d="M1298.69 221.85L1298.69 221.85" stroke="rgba(178, 160, 183, 1)" stroke-width="1.5"></path><path d="M1298.69 221.85L1259.9 371.6" stroke="rgba(178, 160, 183, 1)" stroke-width="1.5"></path><path d="M1259.9 371.6L1259.9 371.6" stroke="rgba(178, 160, 183, 1)" stroke-width="1.5"></path><path d="M1259.9 371.6L1395.24 404.34" stroke="rgba(178, 160, 183, 1)" stroke-width="1.5"></path><path d="M1259.9 371.6L1270.46 543.39" stroke="rgba(178, 160, 183, 1)" stroke-width="1.5"></path><path d="M1270.46 543.39L1270.46 543.39" stroke="rgba(178, 160, 183, 1)" stroke-width="1.5"></path><path d="M1270.46 543.39L1280.86 670.9" stroke="rgba(178, 160, 183, 1)" stroke-width="1.5"></path><path d="M1270.46 543.39L1404.3 490.71" stroke="rgba(178, 160, 183, 1)" stroke-width="1.5"></path><path d="M1270.46 543.39L1395.24 404.34" stroke="rgba(178, 160, 183, 1)" stroke-width="1.5"></path><path d="M1270.46 543.39L1443.98 694.84" stroke="rgba(178, 160, 183, 1)" stroke-width="1.5"></path><path d="M1280.86 670.9L1280.86 670.9" stroke="rgba(178, 160, 183, 1)" stroke-width="1.5"></path><path d="M1280.86 670.9L1443.98 694.84" stroke="rgba(178, 160, 183, 1)" stroke-width="1.5"></path><path d="M1280.86 670.9L1404.3 490.71" stroke="rgba(178, 160, 183, 1)" stroke-width="1.5"></path><path d="M1456.16 -75.74L1456.16 -75.74" stroke="rgba(178, 160, 183, 1)" stroke-width="1.5"></path><path d="M1456.16 -75.74L1596.48 -80.29" stroke="rgba(178, 160, 183, 1)" stroke-width="1.5"></path><path d="M1456.16 -75.74L1429.39 103.55" stroke="rgba(178, 160, 183, 1)" stroke-width="1.5"></path><path d="M1456.16 -75.74L1600.22 44.37" stroke="rgba(178, 160, 183, 1)" stroke-width="1.5"></path><path d="M1456.16 -75.74L1258.57 101.17" stroke="rgba(178, 160, 183, 1)" stroke-width="1.5"></path><path d="M1429.39 103.55L1429.39 103.55" stroke="rgba(178, 160, 183, 1)" stroke-width="1.5"></path><path d="M1429.39 103.55L1298.69 221.85" stroke="rgba(178, 160, 183, 1)" stroke-width="1.5"></path><path d="M1429.39 103.55L1600.22 44.37" stroke="rgba(178, 160, 183, 1)" stroke-width="1.5"></path><path d="M1395.24 404.34L1395.24 404.34" stroke="rgba(178, 160, 183, 1)" stroke-width="1.5"></path><path d="M1395.24 404.34L1404.3 490.71" stroke="rgba(178, 160, 183, 1)" stroke-width="1.5"></path><path d="M1395.24 404.34L1588.76 379.66" stroke="rgba(178, 160, 183, 1)" stroke-width="1.5"></path><path d="M1395.24 404.34L1298.69 221.85" stroke="rgba(178, 160, 183, 1)" stroke-width="1.5"></path><path d="M1404.3 490.71L1404.3 490.71" stroke="rgba(178, 160, 183, 1)" stroke-width="1.5"></path><path d="M1404.3 490.71L1259.9 371.6" stroke="rgba(178, 160, 183, 1)" stroke-width="1.5"></path><path d="M1404.3 490.71L1601.06 551.75" stroke="rgba(178, 160, 183, 1)" stroke-width="1.5"></path><path d="M1404.3 490.71L1443.98 694.84" stroke="rgba(178, 160, 183, 1)" stroke-width="1.5"></path><path d="M1404.3 490.71L1588.76 379.66" stroke="rgba(178, 160, 183, 1)" stroke-width="1.5"></path><path d="M1443.98 694.84L1443.98 694.84" stroke="rgba(178, 160, 183, 1)" stroke-width="1.5"></path><path d="M1443.98 694.84L1561.66 674.96" stroke="rgba(178, 160, 183, 1)" stroke-width="1.5"></path><path d="M1596.48 -80.29L1596.48 -80.29" stroke="rgba(178, 160, 183, 1)" stroke-width="1.5"></path><path d="M1596.48 -80.29L1600.22 44.37" stroke="rgba(178, 160, 183, 1)" stroke-width="1.5"></path><path d="M1600.22 44.37L1600.22 44.37" stroke="rgba(178, 160, 183, 1)" stroke-width="1.5"></path><path d="M1600.22 44.37L1550.83 246.44" stroke="rgba(178, 160, 183, 1)" stroke-width="1.5"></path><path d="M1550.83 246.44L1550.83 246.44" stroke="rgba(178, 160, 183, 1)" stroke-width="1.5"></path><path d="M1550.83 246.44L1588.76 379.66" stroke="rgba(178, 160, 183, 1)" stroke-width="1.5"></path><path d="M1550.83 246.44L1429.39 103.55" stroke="rgba(178, 160, 183, 1)" stroke-width="1.5"></path><path d="M1550.83 246.44L1395.24 404.34" stroke="rgba(178, 160, 183, 1)" stroke-width="1.5"></path><path d="M1550.83 246.44L1298.69 221.85" stroke="rgba(178, 160, 183, 1)" stroke-width="1.5"></path><path d="M1588.76 379.66L1588.76 379.66" stroke="rgba(178, 160, 183, 1)" stroke-width="1.5"></path><path d="M1588.76 379.66L1601.06 551.75" stroke="rgba(178, 160, 183, 1)" stroke-width="1.5"></path><path d="M1588.76 379.66L1561.66 674.96" stroke="rgba(178, 160, 183, 1)" stroke-width="1.5"></path><path d="M1588.76 379.66L1429.39 103.55" stroke="rgba(178, 160, 183, 1)" stroke-width="1.5"></path><path d="M1601.06 551.75L1601.06 551.75" stroke="rgba(178, 160, 183, 1)" stroke-width="1.5"></path><path d="M1601.06 551.75L1561.66 674.96" stroke="rgba(178, 160, 183, 1)" stroke-width="1.5"></path><path d="M1601.06 551.75L1443.98 694.84" stroke="rgba(178, 160, 183, 1)" stroke-width="1.5"></path><path d="M1601.06 551.75L1395.24 404.34" stroke="rgba(178, 160, 183, 1)" stroke-width="1.5"></path><path d="M1561.66 674.96L1561.66 674.96" stroke="rgba(178, 160, 183, 1)" stroke-width="1.5"></path><path d="M1561.66 674.96L1404.3 490.71" stroke="rgba(178, 160, 183, 1)" stroke-width="1.5"></path><path d="M1561.66 674.96L1280.86 670.9" stroke="rgba(178, 160, 183, 1)" stroke-width="1.5"></path><path d="M1561.66 674.96L1395.24 404.34" stroke="rgba(178, 160, 183, 1)" stroke-width="1.5"></path><circle r="5" cx="-61.09" cy="371.32" fill="rgba(178, 160, 183, 1)"></circle><circle r="5" cx="-40.06" cy="553.82" fill="rgba(178, 160, 183, 1)"></circle><circle r="5" cx="-43.43" cy="665.65" fill="rgba(178, 160, 183, 1)"></circle><circle r="5" cx="94.92" cy="351.18" fill="rgba(178, 160, 183, 1)"></circle><circle r="5" cx="106.16" cy="561.77" fill="rgba(178, 160, 183, 1)"></circle><circle r="5" cx="58.62" cy="663.04" fill="rgba(178, 160, 183, 1)"></circle><circle r="5" cx="203.9" cy="341.76" fill="rgba(178, 160, 183, 1)"></circle><circle r="5" cx="218.78" cy="677.36" fill="rgba(178, 160, 183, 1)"></circle><circle r="5" cx="346.71" cy="407.7" fill="rgba(178, 160, 183, 1)"></circle><circle r="5" cx="351.61" cy="500.93" fill="rgba(178, 160, 183, 1)"></circle><circle r="5" cx="362.75" cy="640.22" fill="rgba(178, 160, 183, 1)"></circle><circle r="5" cx="556.43" cy="352.87" fill="rgba(178, 160, 183, 1)"></circle><circle r="5" cx="529.04" cy="555.77" fill="rgba(178, 160, 183, 1)"></circle><circle r="5" cx="500.3" cy="698.08" fill="rgba(178, 160, 183, 1)"></circle><circle r="5" cx="639.4" cy="342.64" fill="rgba(178, 160, 183, 1)"></circle><circle r="5" cx="649.94" cy="556.37" fill="rgba(178, 160, 183, 1)"></circle><circle r="5" cx="654.9" cy="661.48" fill="rgba(178, 160, 183, 1)"></circle><circle r="5" cx="828.14" cy="213.53" fill="rgba(178, 160, 183, 1)"></circle><circle r="5" cx="791.15" cy="385.09" fill="rgba(178, 160, 183, 1)"></circle><circle r="5" cx="791.24" cy="532.42" fill="rgba(178, 160, 183, 1)"></circle><circle r="5" cx="815.11" cy="648.55" fill="rgba(178, 160, 183, 1)"></circle><circle r="5" cx="982.46" cy="-110.37" fill="rgba(178, 160, 183, 1)"></circle><circle r="5" cx="977.96" cy="37.87" fill="rgba(178, 160, 183, 1)"></circle><circle r="5" cx="998.22" cy="220.1" fill="rgba(178, 160, 183, 1)"></circle><circle r="5" cx="1006.61" cy="377.44" fill="rgba(178, 160, 183, 1)"></circle><circle r="5" cx="966.58" cy="529.75" fill="rgba(178, 160, 183, 1)"></circle><circle r="5" cx="1002.61" cy="704.88" fill="rgba(178, 160, 183, 1)"></circle><circle r="5" cx="1153.9" cy="-107.84" fill="rgba(178, 160, 183, 1)"></circle><circle r="5" cx="1097.37" cy="59.46" fill="rgba(178, 160, 183, 1)"></circle><circle r="5" cx="1141.48" cy="256.69" fill="rgba(178, 160, 183, 1)"></circle><circle r="5" cx="1106.78" cy="362.67" fill="rgba(178, 160, 183, 1)"></circle><circle r="5" cx="1247.01" cy="-67.42" fill="rgba(178, 160, 183, 1)"></circle><circle r="5" cx="1258.57" cy="101.17" fill="rgba(178, 160, 183, 1)"></circle><circle r="5" cx="1298.69" cy="221.85" fill="rgba(178, 160, 183, 1)"></circle><circle r="5" cx="1259.9" cy="371.6" fill="rgba(178, 160, 183, 1)"></circle><circle r="5" cx="1270.46" cy="543.39" fill="rgba(178, 160, 183, 1)"></circle><circle r="5" cx="1280.86" cy="670.9" fill="rgba(178, 160, 183, 1)"></circle><circle r="5" cx="1456.16" cy="-75.74" fill="rgba(178, 160, 183, 1)"></circle><circle r="5" cx="1429.39" cy="103.55" fill="rgba(178, 160, 183, 1)"></circle><circle r="5" cx="1395.24" cy="404.34" fill="rgba(178, 160, 183, 1)"></circle><circle r="5" cx="1404.3" cy="490.71" fill="rgba(178, 160, 183, 1)"></circle><circle r="5" cx="1443.98" cy="694.84" fill="rgba(178, 160, 183, 1)"></circle><circle r="5" cx="1596.48" cy="-80.29" fill="rgba(178, 160, 183, 1)"></circle><circle r="5" cx="1600.22" cy="44.37" fill="rgba(178, 160, 183, 1)"></circle><circle r="5" cx="1550.83" cy="246.44" fill="rgba(178, 160, 183, 1)"></circle><circle r="5" cx="1588.76" cy="379.66" fill="rgba(178, 160, 183, 1)"></circle><circle r="5" cx="1601.06" cy="551.75" fill="rgba(178, 160, 183, 1)"></circle><circle r="5" cx="1561.66" cy="674.96" fill="rgba(178, 160, 183, 1)"></circle><path d="M-105.45 502.28L-105.45 502.28" stroke="hsl(287.9, 62%, 79%)" stroke-width="1.5"></path><path d="M-105.45 502.28L58.41 515.49" stroke="hsl(287.9, 62%, 79%)" stroke-width="1.5"></path><path d="M-105.45 502.28L-49.38 656.99" stroke="hsl(287.9, 62%, 79%)" stroke-width="1.5"></path><path d="M-105.45 502.28L53.19 688.87" stroke="hsl(287.9, 62%, 79%)" stroke-width="1.5"></path><path d="M-105.45 502.28L195.6 682.38" stroke="hsl(287.9, 62%, 79%)" stroke-width="1.5"></path><path d="M-105.45 502.28L258.99 554.33" stroke="hsl(287.9, 62%, 79%)" stroke-width="1.5"></path><path d="M-105.45 502.28L359.44 526.62" stroke="hsl(287.9, 62%, 79%)" stroke-width="1.5"></path><path d="M343.96 701.49L343.96 701.49" stroke="hsl(287.9, 62%, 79%)" stroke-width="1.5"></path><path d="M343.96 701.49L195.6 682.38" stroke="hsl(287.9, 62%, 79%)" stroke-width="1.5"></path><path d="M343.96 701.49L258.99 554.33" stroke="hsl(287.9, 62%, 79%)" stroke-width="1.5"></path><path d="M824.88 531.83L824.88 531.83" stroke="hsl(287.9, 62%, 79%)" stroke-width="1.5"></path><path d="M824.88 531.83L816.06 388.98" stroke="hsl(287.9, 62%, 79%)" stroke-width="1.5"></path><path d="M824.88 531.83L985.06 531.22" stroke="hsl(287.9, 62%, 79%)" stroke-width="1.5"></path><path d="M969.35 245.96L969.35 245.96" stroke="hsl(287.9, 62%, 79%)" stroke-width="1.5"></path><path d="M969.35 245.96L1093.02 215.73" stroke="hsl(287.9, 62%, 79%)" stroke-width="1.5"></path><path d="M969.35 245.96L953.72 380.8" stroke="hsl(287.9, 62%, 79%)" stroke-width="1.5"></path><path d="M969.35 245.96L1127.09 370.58" stroke="hsl(287.9, 62%, 79%)" stroke-width="1.5"></path><path d="M969.35 245.96L816.06 388.98" stroke="hsl(287.9, 62%, 79%)" stroke-width="1.5"></path><path d="M969.35 245.96L1139.15 91.31" stroke="hsl(287.9, 62%, 79%)" stroke-width="1.5"></path><path d="M969.35 245.96L985.06 531.22" stroke="hsl(287.9, 62%, 79%)" stroke-width="1.5"></path><path d="M985.06 531.22L985.06 531.22" stroke="hsl(287.9, 62%, 79%)" stroke-width="1.5"></path><path d="M985.06 531.22L988.2 647.62" stroke="hsl(287.9, 62%, 79%)" stroke-width="1.5"></path><path d="M985.06 531.22L1135.81 510.44" stroke="hsl(287.9, 62%, 79%)" stroke-width="1.5"></path><path d="M985.06 531.22L953.72 380.8" stroke="hsl(287.9, 62%, 79%)" stroke-width="1.5"></path><path d="M985.06 531.22L1125.29 639.33" stroke="hsl(287.9, 62%, 79%)" stroke-width="1.5"></path><path d="M988.2 647.62L988.2 647.62" stroke="hsl(287.9, 62%, 79%)" stroke-width="1.5"></path><path d="M988.2 647.62L1125.29 639.33" stroke="hsl(287.9, 62%, 79%)" stroke-width="1.5"></path><path d="M988.2 647.62L824.88 531.83" stroke="hsl(287.9, 62%, 79%)" stroke-width="1.5"></path><path d="M988.2 647.62L1135.81 510.44" stroke="hsl(287.9, 62%, 79%)" stroke-width="1.5"></path><path d="M988.2 647.62L789.9 705.31" stroke="hsl(287.9, 62%, 79%)" stroke-width="1.5"></path><path d="M1305.04 -49.68L1305.04 -49.68" stroke="hsl(287.9, 62%, 79%)" stroke-width="1.5"></path><path d="M1305.04 -49.68L1396.89 -41.02" stroke="hsl(287.9, 62%, 79%)" stroke-width="1.5"></path><path d="M1305.04 -49.68L1287.75 62.2" stroke="hsl(287.9, 62%, 79%)" stroke-width="1.5"></path><path d="M1305.04 -49.68L1408.79 93.05" stroke="hsl(287.9, 62%, 79%)" stroke-width="1.5"></path><path d="M1305.04 -49.68L1139.15 91.31" stroke="hsl(287.9, 62%, 79%)" stroke-width="1.5"></path><path d="M1281.06 663L1281.06 663" stroke="hsl(287.9, 62%, 79%)" stroke-width="1.5"></path><path d="M1281.06 663L1271.71 553.59" stroke="hsl(287.9, 62%, 79%)" stroke-width="1.5"></path><path d="M1281.06 663L1125.29 639.33" stroke="hsl(287.9, 62%, 79%)" stroke-width="1.5"></path><path d="M1281.06 663L1457.42 689.69" stroke="hsl(287.9, 62%, 79%)" stroke-width="1.5"></path><path d="M1281.06 663L1135.81 510.44" stroke="hsl(287.9, 62%, 79%)" stroke-width="1.5"></path><path d="M1281.06 663L1446.55 532.58" stroke="hsl(287.9, 62%, 79%)" stroke-width="1.5"></path><path d="M1281.06 663L988.2 647.62" stroke="hsl(287.9, 62%, 79%)" stroke-width="1.5"></path><path d="M1396.89 -41.02L1396.89 -41.02" stroke="hsl(287.9, 62%, 79%)" stroke-width="1.5"></path><path d="M1396.89 -41.02L1408.79 93.05" stroke="hsl(287.9, 62%, 79%)" stroke-width="1.5"></path><path d="M1396.89 -41.02L1287.75 62.2" stroke="hsl(287.9, 62%, 79%)" stroke-width="1.5"></path><path d="M1396.89 -41.02L1601.19 -85.18" stroke="hsl(287.9, 62%, 79%)" stroke-width="1.5"></path><path d="M1396.89 -41.02L1559.73 99.03" stroke="hsl(287.9, 62%, 79%)" stroke-width="1.5"></path><path d="M1396.89 -41.02L1312.29 193.96" stroke="hsl(287.9, 62%, 79%)" stroke-width="1.5"></path><path d="M1446.55 532.58L1446.55 532.58" stroke="hsl(287.9, 62%, 79%)" stroke-width="1.5"></path><path d="M1446.55 532.58L1558.89 534.94" stroke="hsl(287.9, 62%, 79%)" stroke-width="1.5"></path><path d="M1446.55 532.58L1425.92 394.47" stroke="hsl(287.9, 62%, 79%)" stroke-width="1.5"></path><path d="M1446.55 532.58L1457.42 689.69" stroke="hsl(287.9, 62%, 79%)" stroke-width="1.5"></path><path d="M1559.73 99.03L1559.73 99.03" stroke="hsl(287.9, 62%, 79%)" stroke-width="1.5"></path><path d="M1559.73 99.03L1408.79 93.05" stroke="hsl(287.9, 62%, 79%)" stroke-width="1.5"></path><path d="M1559.73 99.03L1539.52 256.26" stroke="hsl(287.9, 62%, 79%)" stroke-width="1.5"></path><path d="M1559.73 99.03L1601.19 -85.18" stroke="hsl(287.9, 62%, 79%)" stroke-width="1.5"></path><path d="M1559.73 99.03L1400.98 228.05" stroke="hsl(287.9, 62%, 79%)" stroke-width="1.5"></path><path d="M1559.73 99.03L1572.49 343.7" stroke="hsl(287.9, 62%, 79%)" stroke-width="1.5"></path><path d="M-49.38 656.99L-49.38 656.99" stroke="hsl(287.9, 62%, 79%)" stroke-width="1.5"></path><path d="M-49.38 656.99L53.19 688.87" stroke="hsl(287.9, 62%, 79%)" stroke-width="1.5"></path><path d="M-49.38 656.99L58.41 515.49" stroke="hsl(287.9, 62%, 79%)" stroke-width="1.5"></path><path d="M-49.38 656.99L195.6 682.38" stroke="hsl(287.9, 62%, 79%)" stroke-width="1.5"></path><path d="M-49.38 656.99L258.99 554.33" stroke="hsl(287.9, 62%, 79%)" stroke-width="1.5"></path><path d="M-49.38 656.99L343.96 701.49" stroke="hsl(287.9, 62%, 79%)" stroke-width="1.5"></path><path d="M58.41 515.49L58.41 515.49" stroke="hsl(287.9, 62%, 79%)" stroke-width="1.5"></path><path d="M53.19 688.87L53.19 688.87" stroke="hsl(287.9, 62%, 79%)" stroke-width="1.5"></path><path d="M53.19 688.87L195.6 682.38" stroke="hsl(287.9, 62%, 79%)" stroke-width="1.5"></path><path d="M53.19 688.87L58.41 515.49" stroke="hsl(287.9, 62%, 79%)" stroke-width="1.5"></path><path d="M53.19 688.87L258.99 554.33" stroke="hsl(287.9, 62%, 79%)" stroke-width="1.5"></path><path d="M53.19 688.87L343.96 701.49" stroke="hsl(287.9, 62%, 79%)" stroke-width="1.5"></path><path d="M258.99 554.33L258.99 554.33" stroke="hsl(287.9, 62%, 79%)" stroke-width="1.5"></path><path d="M258.99 554.33L359.44 526.62" stroke="hsl(287.9, 62%, 79%)" stroke-width="1.5"></path><path d="M258.99 554.33L195.6 682.38" stroke="hsl(287.9, 62%, 79%)" stroke-width="1.5"></path><path d="M195.6 682.38L195.6 682.38" stroke="hsl(287.9, 62%, 79%)" stroke-width="1.5"></path><path d="M359.44 526.62L359.44 526.62" stroke="hsl(287.9, 62%, 79%)" stroke-width="1.5"></path><path d="M359.44 526.62L343.96 701.49" stroke="hsl(287.9, 62%, 79%)" stroke-width="1.5"></path><path d="M543.23 511.74L543.23 511.74" stroke="hsl(287.9, 62%, 79%)" stroke-width="1.5"></path><path d="M543.23 511.74L659.27 543.66" stroke="hsl(287.9, 62%, 79%)" stroke-width="1.5"></path><path d="M543.23 511.74L650.01 406.9" stroke="hsl(287.9, 62%, 79%)" stroke-width="1.5"></path><path d="M543.29 679.09L543.29 679.09" stroke="hsl(287.9, 62%, 79%)" stroke-width="1.5"></path><path d="M543.29 679.09L693.09 672.5" stroke="hsl(287.9, 62%, 79%)" stroke-width="1.5"></path><path d="M543.29 679.09L543.23 511.74" stroke="hsl(287.9, 62%, 79%)" stroke-width="1.5"></path><path d="M543.29 679.09L659.27 543.66" stroke="hsl(287.9, 62%, 79%)" stroke-width="1.5"></path><path d="M543.29 679.09L343.96 701.49" stroke="hsl(287.9, 62%, 79%)" stroke-width="1.5"></path><path d="M543.29 679.09L359.44 526.62" stroke="hsl(287.9, 62%, 79%)" stroke-width="1.5"></path><path d="M543.29 679.09L789.9 705.31" stroke="hsl(287.9, 62%, 79%)" stroke-width="1.5"></path><path d="M650.01 406.9L650.01 406.9" stroke="hsl(287.9, 62%, 79%)" stroke-width="1.5"></path><path d="M650.01 406.9L659.27 543.66" stroke="hsl(287.9, 62%, 79%)" stroke-width="1.5"></path><path d="M650.01 406.9L816.06 388.98" stroke="hsl(287.9, 62%, 79%)" stroke-width="1.5"></path><path d="M650.01 406.9L824.88 531.83" stroke="hsl(287.9, 62%, 79%)" stroke-width="1.5"></path><path d="M659.27 543.66L659.27 543.66" stroke="hsl(287.9, 62%, 79%)" stroke-width="1.5"></path><path d="M693.09 672.5L693.09 672.5" stroke="hsl(287.9, 62%, 79%)" stroke-width="1.5"></path><path d="M693.09 672.5L789.9 705.31" stroke="hsl(287.9, 62%, 79%)" stroke-width="1.5"></path><path d="M693.09 672.5L659.27 543.66" stroke="hsl(287.9, 62%, 79%)" stroke-width="1.5"></path><path d="M693.09 672.5L824.88 531.83" stroke="hsl(287.9, 62%, 79%)" stroke-width="1.5"></path><path d="M693.09 672.5L543.23 511.74" stroke="hsl(287.9, 62%, 79%)" stroke-width="1.5"></path><path d="M816.06 388.98L816.06 388.98" stroke="hsl(287.9, 62%, 79%)" stroke-width="1.5"></path><path d="M816.06 388.98L953.72 380.8" stroke="hsl(287.9, 62%, 79%)" stroke-width="1.5"></path><path d="M789.9 705.31L789.9 705.31" stroke="hsl(287.9, 62%, 79%)" stroke-width="1.5"></path><path d="M789.9 705.31L824.88 531.83" stroke="hsl(287.9, 62%, 79%)" stroke-width="1.5"></path><path d="M789.9 705.31L659.27 543.66" stroke="hsl(287.9, 62%, 79%)" stroke-width="1.5"></path><path d="M953.72 380.8L953.72 380.8" stroke="hsl(287.9, 62%, 79%)" stroke-width="1.5"></path><path d="M953.72 380.8L1127.09 370.58" stroke="hsl(287.9, 62%, 79%)" stroke-width="1.5"></path><path d="M953.72 380.8L824.88 531.83" stroke="hsl(287.9, 62%, 79%)" stroke-width="1.5"></path><path d="M953.72 380.8L1093.02 215.73" stroke="hsl(287.9, 62%, 79%)" stroke-width="1.5"></path><path d="M1139.15 91.31L1139.15 91.31" stroke="hsl(287.9, 62%, 79%)" stroke-width="1.5"></path><path d="M1139.15 91.31L1093.02 215.73" stroke="hsl(287.9, 62%, 79%)" stroke-width="1.5"></path><path d="M1139.15 91.31L1287.75 62.2" stroke="hsl(287.9, 62%, 79%)" stroke-width="1.5"></path><path d="M1093.02 215.73L1093.02 215.73" stroke="hsl(287.9, 62%, 79%)" stroke-width="1.5"></path><path d="M1093.02 215.73L1127.09 370.58" stroke="hsl(287.9, 62%, 79%)" stroke-width="1.5"></path><path d="M1127.09 370.58L1127.09 370.58" stroke="hsl(287.9, 62%, 79%)" stroke-width="1.5"></path><path d="M1127.09 370.58L1135.81 510.44" stroke="hsl(287.9, 62%, 79%)" stroke-width="1.5"></path><path d="M1127.09 370.58L1270.43 354.99" stroke="hsl(287.9, 62%, 79%)" stroke-width="1.5"></path><path d="M1127.09 370.58L985.06 531.22" stroke="hsl(287.9, 62%, 79%)" stroke-width="1.5"></path><path d="M1135.81 510.44L1135.81 510.44" stroke="hsl(287.9, 62%, 79%)" stroke-width="1.5"></path><path d="M1135.81 510.44L1125.29 639.33" stroke="hsl(287.9, 62%, 79%)" stroke-width="1.5"></path><path d="M1135.81 510.44L1271.71 553.59" stroke="hsl(287.9, 62%, 79%)" stroke-width="1.5"></path><path d="M1135.81 510.44L1270.43 354.99" stroke="hsl(287.9, 62%, 79%)" stroke-width="1.5"></path><path d="M1125.29 639.33L1125.29 639.33" stroke="hsl(287.9, 62%, 79%)" stroke-width="1.5"></path><path d="M1125.29 639.33L1271.71 553.59" stroke="hsl(287.9, 62%, 79%)" stroke-width="1.5"></path><path d="M1125.29 639.33L1127.09 370.58" stroke="hsl(287.9, 62%, 79%)" stroke-width="1.5"></path><path d="M1287.75 62.2L1287.75 62.2" stroke="hsl(287.9, 62%, 79%)" stroke-width="1.5"></path><path d="M1287.75 62.2L1408.79 93.05" stroke="hsl(287.9, 62%, 79%)" stroke-width="1.5"></path><path d="M1287.75 62.2L1312.29 193.96" stroke="hsl(287.9, 62%, 79%)" stroke-width="1.5"></path><path d="M1287.75 62.2L1400.98 228.05" stroke="hsl(287.9, 62%, 79%)" stroke-width="1.5"></path><path d="M1312.29 193.96L1312.29 193.96" stroke="hsl(287.9, 62%, 79%)" stroke-width="1.5"></path><path d="M1312.29 193.96L1400.98 228.05" stroke="hsl(287.9, 62%, 79%)" stroke-width="1.5"></path><path d="M1312.29 193.96L1408.79 93.05" stroke="hsl(287.9, 62%, 79%)" stroke-width="1.5"></path><path d="M1312.29 193.96L1270.43 354.99" stroke="hsl(287.9, 62%, 79%)" stroke-width="1.5"></path><path d="M1312.29 193.96L1139.15 91.31" stroke="hsl(287.9, 62%, 79%)" stroke-width="1.5"></path><path d="M1270.43 354.99L1270.43 354.99" stroke="hsl(287.9, 62%, 79%)" stroke-width="1.5"></path><path d="M1270.43 354.99L1425.92 394.47" stroke="hsl(287.9, 62%, 79%)" stroke-width="1.5"></path><path d="M1271.71 553.59L1271.71 553.59" stroke="hsl(287.9, 62%, 79%)" stroke-width="1.5"></path><path d="M1408.79 93.05L1408.79 93.05" stroke="hsl(287.9, 62%, 79%)" stroke-width="1.5"></path><path d="M1408.79 93.05L1400.98 228.05" stroke="hsl(287.9, 62%, 79%)" stroke-width="1.5"></path><path d="M1400.98 228.05L1400.98 228.05" stroke="hsl(287.9, 62%, 79%)" stroke-width="1.5"></path><path d="M1400.98 228.05L1539.52 256.26" stroke="hsl(287.9, 62%, 79%)" stroke-width="1.5"></path><path d="M1400.98 228.05L1425.92 394.47" stroke="hsl(287.9, 62%, 79%)" stroke-width="1.5"></path><path d="M1400.98 228.05L1270.43 354.99" stroke="hsl(287.9, 62%, 79%)" stroke-width="1.5"></path><path d="M1425.92 394.47L1425.92 394.47" stroke="hsl(287.9, 62%, 79%)" stroke-width="1.5"></path><path d="M1425.92 394.47L1572.49 343.7" stroke="hsl(287.9, 62%, 79%)" stroke-width="1.5"></path><path d="M1457.42 689.69L1457.42 689.69" stroke="hsl(287.9, 62%, 79%)" stroke-width="1.5"></path><path d="M1457.42 689.69L1605.75 646.96" stroke="hsl(287.9, 62%, 79%)" stroke-width="1.5"></path><path d="M1457.42 689.69L1558.89 534.94" stroke="hsl(287.9, 62%, 79%)" stroke-width="1.5"></path><path d="M1601.19 -85.18L1601.19 -85.18" stroke="hsl(287.9, 62%, 79%)" stroke-width="1.5"></path><path d="M1601.19 -85.18L1408.79 93.05" stroke="hsl(287.9, 62%, 79%)" stroke-width="1.5"></path><path d="M1601.19 -85.18L1305.04 -49.68" stroke="hsl(287.9, 62%, 79%)" stroke-width="1.5"></path><path d="M1539.52 256.26L1539.52 256.26" stroke="hsl(287.9, 62%, 79%)" stroke-width="1.5"></path><path d="M1539.52 256.26L1572.49 343.7" stroke="hsl(287.9, 62%, 79%)" stroke-width="1.5"></path><path d="M1572.49 343.7L1572.49 343.7" stroke="hsl(287.9, 62%, 79%)" stroke-width="1.5"></path><path d="M1572.49 343.7L1558.89 534.94" stroke="hsl(287.9, 62%, 79%)" stroke-width="1.5"></path><path d="M1572.49 343.7L1400.98 228.05" stroke="hsl(287.9, 62%, 79%)" stroke-width="1.5"></path><path d="M1572.49 343.7L1446.55 532.58" stroke="hsl(287.9, 62%, 79%)" stroke-width="1.5"></path><path d="M1558.89 534.94L1558.89 534.94" stroke="hsl(287.9, 62%, 79%)" stroke-width="1.5"></path><path d="M1558.89 534.94L1605.75 646.96" stroke="hsl(287.9, 62%, 79%)" stroke-width="1.5"></path><path d="M1605.75 646.96L1605.75 646.96" stroke="hsl(287.9, 62%, 79%)" stroke-width="1.5"></path><path d="M1605.75 646.96L1446.55 532.58" stroke="hsl(287.9, 62%, 79%)" stroke-width="1.5"></path><path d="M1605.75 646.96L1572.49 343.7" stroke="hsl(287.9, 62%, 79%)" stroke-width="1.5"></path><path d="M1605.75 646.96L1425.92 394.47" stroke="hsl(287.9, 62%, 79%)" stroke-width="1.5"></path><circle r="25" cx="-105.45" cy="502.28" fill="url(#SvgjsRadialGradient1019)"></circle><circle r="25" cx="343.96" cy="701.49" fill="url(#SvgjsRadialGradient1019)"></circle><circle r="25" cx="824.88" cy="531.83" fill="url(#SvgjsRadialGradient1019)"></circle><circle r="25" cx="969.35" cy="245.96" fill="url(#SvgjsRadialGradient1019)"></circle><circle r="25" cx="985.06" cy="531.22" fill="url(#SvgjsRadialGradient1019)"></circle><circle r="25" cx="988.2" cy="647.62" fill="url(#SvgjsRadialGradient1019)"></circle><circle r="25" cx="1305.04" cy="-49.68" fill="url(#SvgjsRadialGradient1019)"></circle><circle r="25" cx="1281.06" cy="663" fill="url(#SvgjsRadialGradient1019)"></circle><circle r="25" cx="1396.89" cy="-41.02" fill="url(#SvgjsRadialGradient1019)"></circle><circle r="25" cx="1446.55" cy="532.58" fill="url(#SvgjsRadialGradient1019)"></circle><circle r="25" cx="1559.73" cy="99.03" fill="url(#SvgjsRadialGradient1019)"></circle><circle r="5" cx="-49.38" cy="656.99" fill="#e0aeec"></circle><circle r="5" cx="58.41" cy="515.49" fill="#e0aeec"></circle><circle r="5" cx="53.19" cy="688.87" fill="#e0aeec"></circle><circle r="5" cx="258.99" cy="554.33" fill="#e0aeec"></circle><circle r="5" cx="195.6" cy="682.38" fill="#e0aeec"></circle><circle r="5" cx="359.44" cy="526.62" fill="#e0aeec"></circle><circle r="5" cx="543.23" cy="511.74" fill="#e0aeec"></circle><circle r="5" cx="543.29" cy="679.09" fill="#e0aeec"></circle><circle r="5" cx="650.01" cy="406.9" fill="#e0aeec"></circle><circle r="5" cx="659.27" cy="543.66" fill="#e0aeec"></circle><circle r="5" cx="693.09" cy="672.5" fill="#e0aeec"></circle><circle r="5" cx="816.06" cy="388.98" fill="#e0aeec"></circle><circle r="5" cx="789.9" cy="705.31" fill="#e0aeec"></circle><circle r="5" cx="953.72" cy="380.8" fill="#e0aeec"></circle><circle r="5" cx="1139.15" cy="91.31" fill="#e0aeec"></circle><circle r="5" cx="1093.02" cy="215.73" fill="#e0aeec"></circle><circle r="5" cx="1127.09" cy="370.58" fill="#e0aeec"></circle><circle r="5" cx="1135.81" cy="510.44" fill="#e0aeec"></circle><circle r="5" cx="1125.29" cy="639.33" fill="#e0aeec"></circle><circle r="5" cx="1287.75" cy="62.2" fill="#e0aeec"></circle><circle r="5" cx="1312.29" cy="193.96" fill="#e0aeec"></circle><circle r="5" cx="1270.43" cy="354.99" fill="#e0aeec"></circle><circle r="5" cx="1271.71" cy="553.59" fill="#e0aeec"></circle><circle r="5" cx="1408.79" cy="93.05" fill="#e0aeec"></circle><circle r="5" cx="1400.98" cy="228.05" fill="#e0aeec"></circle><circle r="5" cx="1425.92" cy="394.47" fill="#e0aeec"></circle><circle r="5" cx="1457.42" cy="689.69" fill="#e0aeec"></circle><circle r="5" cx="1601.19" cy="-85.18" fill="#e0aeec"></circle><circle r="5" cx="1539.52" cy="256.26" fill="#e0aeec"></circle><circle r="5" cx="1572.49" cy="343.7" fill="#e0aeec"></circle><circle r="5" cx="1558.89" cy="534.94" fill="#e0aeec"></circle><circle r="5" cx="1605.75" cy="646.96" fill="#e0aeec"></circle></g><defs><mask id="SvgjsMask1018"><rect width="1440" height="560" fill="#ffffff"></rect></mask><radialGradient id="SvgjsRadialGradient1019"><stop stop-color="#ffffff" offset="0.1"></stop><stop stop-color="rgba(192, 93, 217, 1)" offset="0.2"></stop><stop stop-color="rgba(192, 93, 217, 0)" offset="1"></stop></radialGradient></defs></svg>